<svg width="60" height="60" fill="none" xmlns="http://www.w3.org/2000/svg"><path d="M6.45 47.525l-.05.05c-.675-1.475-1.1-3.15-1.275-5 .175 1.825.65 3.475 1.325 4.95zM22.5 25.95a5.95 5.95 0 100-11.9 5.95 5.95 0 000 11.9z" fill="#A0B5FF"/><path d="M40.475 5h-20.95C10.425 5 5 10.425 5 19.525v20.95c0 2.725.475 5.1 1.4 7.1C8.55 52.325 13.15 55 19.525 55h20.95C49.575 55 55 49.575 55 40.475v-20.95C55 10.425 49.575 5 40.475 5zm10.45 26.25c-1.95-1.675-5.1-1.675-7.05 0l-10.4 8.925c-1.95 1.675-5.1 1.675-7.05 0l-.85-.7c-1.775-1.55-4.6-1.7-6.6-.35L9.625 45.4c-.55-1.4-.875-3.025-.875-4.925v-20.95c0-7.05 3.725-10.775 10.775-10.775h20.95c7.05 0 10.775 3.725 10.775 10.775v12l-.325-.275z" fill="#A0B5FF"/></svg>