<svg width="24" height="24" viewBox="0 0 24 24" fill="none" xmlns="http://www.w3.org/2000/svg">
<path d="M20.1 9.22043C18.29 9.22043 17.55 7.94042 18.45 6.37042C18.97 5.46042 18.66 4.30042 17.75 3.78042L16.02 2.79042C15.23 2.32042 14.21 2.60042 13.74 3.39042L13.63 3.58042C12.73 5.15042 11.25 5.15042 10.34 3.58042L10.23 3.39042C9.78 2.60042 8.76 2.32042 7.97 2.79042L6.24 3.78042C5.33 4.30042 5.02 5.47042 5.54 6.38042C6.45 7.94042 5.71 9.22043 3.9 9.22043C2.86 9.22043 2 10.0704 2 11.1204V12.8804C2 13.9204 2.85 14.7804 3.9 14.7804C5.71 14.7804 6.45 16.0604 5.54 17.6304C5.02 18.5404 5.33 19.7004 6.24 20.2204L7.97 21.2104C8.76 21.6804 9.78 21.4004 10.25 20.6104L10.36 20.4204C11.26 18.8504 12.74 18.8504 13.65 20.4204L13.76 20.6104C14.23 21.4004 15.25 21.6804 16.04 21.2104L17.77 20.2204C18.68 19.7004 18.99 18.5304 18.47 17.6304C17.56 16.0604 18.3 14.7804 20.11 14.7804C21.15 14.7804 22.01 13.9304 22.01 12.8804V11.1204C22 10.0804 21.15 9.22043 20.1 9.22043ZM12 15.2504C10.21 15.2504 8.75 13.7904 8.75 12.0004C8.75 10.2104 10.21 8.75042 12 8.75042C13.79 8.75042 15.25 10.2104 15.25 12.0004C15.25 13.7904 13.79 15.2504 12 15.2504Z" fill="#3D5278"/>
</svg>
