<svg width="20" height="18" viewBox="0 0 20 18" fill="none" xmlns="http://www.w3.org/2000/svg">
<path fill-rule="evenodd" clip-rule="evenodd" d="M9.16664 1.65862C9.2242 1.47609 9.33846 1.31666 9.49281 1.20349C9.64717 1.09031 9.83358 1.0293 10.025 1.0293C10.2164 1.0293 10.4028 1.09031 10.5571 1.20349C10.7115 1.31666 10.8257 1.47609 10.8833 1.65862L12.4333 6.42529H17.4333C17.6315 6.41779 17.8268 6.47541 17.9892 6.58932C18.1516 6.70324 18.2723 6.86719 18.3327 7.05614C18.3932 7.24508 18.3902 7.44862 18.324 7.63567C18.2579 7.82271 18.1324 7.98297 17.9666 8.09196L13.9083 11.0336L15.4583 15.8086C15.5196 15.9905 15.5212 16.1872 15.4627 16.3701C15.4043 16.5529 15.2889 16.7122 15.1335 16.8249C14.9781 16.9375 14.7907 16.9975 14.5988 16.996C14.4068 16.9946 14.2204 16.9319 14.0666 16.817L9.99998 13.842L5.94164 16.792C5.7879 16.9069 5.60145 16.9696 5.40951 16.971C5.21758 16.9725 5.03022 16.9125 4.87479 16.7999C4.71936 16.6872 4.604 16.5279 4.54557 16.3451C4.48713 16.1622 4.48868 15.9655 4.54998 15.7836L6.09998 11.0086L2.04164 8.06696C1.87588 7.95797 1.75035 7.79771 1.68424 7.61067C1.61813 7.42363 1.61508 7.22008 1.67554 7.03114C1.736 6.84219 1.85666 6.67824 2.01907 6.56432C2.18149 6.45041 2.37673 6.39279 2.57498 6.40029H7.57498L9.16664 1.65862Z" stroke="#C3D4E9" stroke-width="1.5" stroke-linecap="round" stroke-linejoin="round"/>
</svg>
